<svg xmlns="http://www.w3.org/2000/svg" aria-hidden="true" focusable="false">
  <symbol id="icon-moon" viewBox="0 0 24 24">
    <path d="M21 14.36A8.5 8.5 0 0 1 9.64 3 7 7 0 1 0 21 14.36z" />
  </symbol>
  <symbol id="icon-sun" viewBox="0 0 24 24">
    <path d="M12 5.5a1 1 0 0 0 1-1V2.75a1 1 0 0 0-2 0V4.5a1 1 0 0 0 1 1zm0 12.75a1 1 0 0 0-1 1v1.75a1 1 0 0 0 2 0V19.5a1 1 0 0 0-1-1zm6.5-6.5a1 1 0 0 0 1-1h1.75a1 1 0 0 0 0-2H19.5a1 1 0 0 0-1 1 1 1 0 0 0 1 1zM4.5 11a1 1 0 0 0 1-1 1 1 0 0 0-1-1H2.75a1 1 0 1 0 0 2H4.5zm11 6.01a1 1 0 0 0-.7 1.71l1.24 1.24a1 1 0 1 0 1.42-1.42l-1.24-1.24a1 1 0 0 0-.72-.29zm-7.8.29L6.46 18.9a1 1 0 1 0 1.42 1.42l1.24-1.24a1 1 0 0 0-1.42-1.42zm7.8-11.2a1 1 0 0 0 .7-1.7l-1.24-1.25a1 1 0 1 0-1.42 1.42l1.24 1.24a1 1 0 0 0 .72.29zm-8.5-.29a1 1 0 0 0 .7-1.71L5.46 5.86a1 1 0 1 0 1.42-1.42L5.64 3.2a1 1 0 0 0-1.41 1.42l1.24 1.24a1 1 0 0 0 .73.29zM12 7a5 5 0 1 1 0 10 5 5 0 0 1 0-10z" />
  </symbol>
  <symbol id="icon-info" viewBox="0 0 24 24">
    <path d="M12 2a10 10 0 1 0 10 10A10 10 0 0 0 12 2zm.75 14a.75.75 0 0 1-1.5 0v-4a.75.75 0 0 1 1.5 0zm-.75-6.5a1 1 0 1 1 1-1 1 1 0 0 1-1 1z" />
  </symbol>
  <symbol id="icon-warning" viewBox="0 0 24 24">
    <path d="M12.88 4.12a1 1 0 0 0-1.76 0l-8 14A1 1 0 0 0 4 19.5h16a1 1 0 0 0 .88-1.38zM12 9a.75.75 0 0 1 .75.75v3.5a.75.75 0 0 1-1.5 0v-3.5A.75.75 0 0 1 12 9zm0 8a1 1 0 1 1 1-1 1 1 0 0 1-1 1z" />
  </symbol>
  <symbol id="icon-success" viewBox="0 0 24 24">
    <path d="M20.24 6.34a1 1 0 0 0-1.48-1.34l-8.49 9.4-3.53-3.52a1 1 0 1 0-1.41 1.42l4.24 4.24a1 1 0 0 0 1.44-.05z" />
  </symbol>
  <symbol id="icon-external" viewBox="0 0 24 24">
    <path d="M14 3a1 1 0 0 0 0 2h3.59l-9.8 9.8a1 1 0 0 0 1.41 1.41L19 6.41V10a1 1 0 0 0 2 0V4a1 1 0 0 0-1-1zM6 5a3 3 0 0 0-3 3v10a3 3 0 0 0 3 3h10a3 3 0 0 0 3-3v-4a1 1 0 0 0-2 0v4a1 1 0 0 1-1 1H6a1 1 0 0 1-1-1V8a1 1 0 0 1 1-1h4a1 1 0 0 0 0-2z" />
  </symbol>
  <symbol id="icon-chevron" viewBox="0 0 24 24">
    <path d="M9 5.75a1 1 0 0 0 0 1.5l4.19 4.25L9 15.75a1 1 0 0 0 1.42 1.4l4.9-5a1 1 0 0 0 0-1.4l-4.9-5a1 1 0 0 0-1.42 0z" />
  </symbol>
</svg>
